# xmcd CD database file
#
# Track frame offsets:
#	150
#	31987
#	53487
#	74700
#	89400
#	115412
#	134085
#	158545
#	175497
#	191310
#	218120
#	235609
#	260430
#	281865
#	302182
#	340007
#
# Disc length: 4795 seconds
#
# Revision: 0
# Processed by: cddbd v1.5.1PL0 Copyright (c) Steve Scherf et al.
# Submitted via: CDex 1.51
#
DISCID=eb12b910
DTITLE=DJ Emma - Emma House 10 (2)
DYEAR=2004
DGENRE=Techno
TTITLE0=Rays - The Last Dance (Malawi Rocks Remix)
TTITLE1=Raw Man - Across The Universe
TTITLE2=Junior Jack and My House (Houseapella) - Phil Kieran - Da Hype (Original Club Mix)
TTITLE3=Hooked - Step Right Up (Original)
TTITLE4=Soul Of Man - Kick Back
TTITLE5=Jestofunk - Big Lover (Planet Funk Remix)
TTITLE6=Bad Pimp's and The DJ's Calling (Acappella) - Vibe Residents F - Give. It.!
TTITLE7=Cave - Carnival (Max Walder Remix)
TTITLE8=Mad - The Flying Pope
TTITLE9=The Goodwill - Happiness (Original)
TTITLE10=Laurent Wolf Featuring Soni Dee - Sunshine Paradise (Pacha Remix)
TTITLE11=Klubfilter - Revelation
TTITLE12=Francesco Farfa - Universal Love (Original Mix)
TTITLE13=Nuboy and Sebastian Gamboa - Journey Into The Keys
TTITLE14=Solu Music - Marcello
TTITLE15=DATAFILE
EXTD=YEAR: 2004
EXTT0=
EXTT1=
EXTT2=
EXTT3=
EXTT4=
EXTT5=
EXTT6=
EXTT7=
EXTT8=
EXTT9=
EXTT10=
EXTT11=
EXTT12=
EXTT13=
EXTT14=
EXTT15=
PLAYORDER=
